<?xml version="1.0" encoding="UTF-8" standalone="no"?>
<svg xmlns:xlink="http://www.w3.org/1999/xlink" height="240.0px" width="240.0px" xmlns="http://www.w3.org/2000/svg">
  <g transform="matrix(1.0, 0.0, 0.0, 1.0, 0.0, 0.0)">
    <path d="M188.65 127.1 Q184.65 130.35 182.25 133.2 192.15 131.6 205.75 126.35 200.2 125.3 194.0 123.25 L188.65 127.1 M187.0 120.6 Q184.5 119.6 181.85 118.4 L178.8 116.95 Q173.95 119.1 167.9 122.85 159.9 127.65 155.05 132.2 164.65 133.75 171.75 133.95 176.5 128.55 187.0 120.6 M179.4 85.0 Q185.8 79.7 189.8 73.85 194.8 66.5 197.45 55.85 191.25 58.6 183.35 61.15 182.45 65.25 181.7 72.3 180.95 79.75 179.4 85.0 M173.3 74.7 Q174.15 67.75 175.4 63.45 L166.35 65.65 158.3 67.45 Q155.9 73.2 154.7 81.95 153.0 94.1 148.85 101.7 L168.1 92.65 Q172.05 85.6 173.3 74.7 M240.0 120.0 Q240.0 169.7 204.85 204.85 169.75 240.0 120.0 240.0 70.25 240.0 35.1 204.85 0.0 169.7 0.0 120.0 0.0 70.3 35.1 35.2 70.25 0.0 120.0 0.0 169.75 0.0 204.85 35.2 240.0 70.3 240.0 120.0 M117.0 90.65 Q116.4 93.9 114.8 97.65 L111.4 104.0 110.9 104.0 101.05 103.6 Q91.25 102.75 84.75 104.4 91.35 100.3 99.0 96.95 107.0 93.5 117.0 90.65 M124.45 74.35 Q97.8 79.75 80.9 85.2 57.4 92.75 40.95 103.6 33.95 108.2 29.95 119.2 27.5 126.05 26.55 133.95 28.05 132.05 30.25 130.35 31.6 129.35 32.95 128.6 L32.75 132.0 Q32.65 136.8 33.95 141.05 34.9 136.85 37.05 132.65 39.7 127.3 43.7 123.1 42.9 126.85 43.05 130.75 43.15 135.4 44.5 138.85 46.6 132.15 48.65 128.45 51.65 123.25 57.2 118.3 56.5 120.4 56.8 123.95 57.05 127.2 58.15 131.0 63.1 122.7 70.05 115.95 69.25 122.45 70.55 130.75 75.2 125.5 85.1 123.0 95.2 120.35 106.8 121.55 L113.75 122.7 Q122.9 114.8 136.4 107.8 141.95 99.95 144.5 85.9 146.2 76.85 147.1 73.95 147.85 71.45 148.85 69.4 L124.45 74.35 M54.15 140.0 Q53.25 137.75 52.6 134.05 48.25 142.75 48.05 153.4 42.85 148.0 39.8 140.95 38.1 147.15 37.75 155.75 33.35 151.25 29.6 144.45 29.75 153.05 32.45 161.15 36.55 173.45 46.6 185.65 46.7 164.65 62.4 154.75 79.5 144.05 102.25 154.75 118.8 162.55 134.95 160.2 153.6 157.45 159.9 140.8 145.6 139.7 130.1 135.45 110.05 129.9 105.25 129.55 92.5 128.65 84.5 131.1 77.1 133.3 67.35 140.35 66.15 138.5 65.25 135.9 64.5 133.7 64.25 131.65 61.0 136.2 59.35 142.85 L58.5 147.1 Q55.65 144.05 54.15 140.0 M125.5 125.35 L127.6 125.9 146.0 130.45 Q149.55 126.35 157.35 121.35 164.8 116.6 172.25 113.55 165.25 109.7 159.75 105.45 151.75 108.75 146.1 111.35 133.9 116.75 125.5 125.35" fill="#151515" fill-rule="evenodd" stroke="none"/>
    <path d="M173.3 74.7 Q172.05 85.6 168.1 92.65 L148.85 101.7 Q153.0 94.1 154.7 81.95 155.9 73.2 158.3 67.45 L166.35 65.65 175.4 63.45 Q174.15 67.75 173.3 74.7 M179.4 85.0 Q180.95 79.75 181.7 72.3 182.45 65.25 183.35 61.15 191.25 58.6 197.45 55.85 194.8 66.5 189.8 73.85 185.8 79.7 179.4 85.0 M187.0 120.6 Q176.5 128.55 171.75 133.95 164.65 133.75 155.05 132.2 159.9 127.65 167.9 122.85 173.95 119.1 178.8 116.95 L181.85 118.4 Q184.5 119.6 187.0 120.6 M188.65 127.1 L194.0 123.25 Q200.2 125.3 205.75 126.35 192.15 131.6 182.25 133.2 184.65 130.35 188.65 127.1 M117.0 90.65 Q107.0 93.5 99.0 96.95 91.35 100.3 84.75 104.4 91.25 102.75 101.05 103.6 L110.9 104.0 111.4 104.0 114.8 97.65 Q116.4 93.9 117.0 90.65 M124.45 74.35 L148.85 69.4 Q147.85 71.45 147.1 73.95 146.2 76.85 144.5 85.9 141.95 99.95 136.4 107.8 122.9 114.8 113.75 122.7 L106.8 121.55 Q95.2 120.35 85.1 123.0 75.2 125.5 70.55 130.75 69.25 122.45 70.05 115.95 63.1 122.7 58.15 131.0 57.05 127.2 56.8 123.95 56.5 120.4 57.2 118.3 51.65 123.25 48.65 128.45 46.6 132.15 44.5 138.85 43.15 135.4 43.05 130.75 42.9 126.85 43.7 123.1 39.7 127.3 37.05 132.65 34.9 136.85 33.95 141.05 32.65 136.8 32.75 132.0 L32.95 128.6 Q31.6 129.35 30.25 130.35 28.05 132.05 26.55 133.95 27.5 126.05 29.95 119.2 33.95 108.2 40.95 103.6 57.4 92.75 80.9 85.2 97.8 79.75 124.45 74.35 M54.15 140.0 Q55.65 144.05 58.5 147.1 L59.35 142.85 Q61.0 136.2 64.25 131.65 64.5 133.7 65.25 135.9 66.15 138.5 67.35 140.35 77.1 133.3 84.5 131.1 92.5 128.65 105.25 129.55 110.05 129.9 130.1 135.45 145.6 139.7 159.9 140.8 153.6 157.45 134.95 160.2 118.8 162.55 102.25 154.75 79.5 144.05 62.4 154.75 46.7 164.65 46.6 185.65 36.55 173.45 32.45 161.15 29.75 153.05 29.6 144.45 33.35 151.25 37.75 155.75 38.1 147.15 39.8 140.95 42.85 148.0 48.05 153.4 48.25 142.75 52.6 134.05 53.25 137.75 54.15 140.0 M125.5 125.35 Q133.9 116.75 146.1 111.35 151.75 108.75 159.75 105.45 165.25 109.7 172.25 113.55 164.8 116.6 157.35 121.35 149.55 126.35 146.0 130.45 L127.6 125.9 125.5 125.35" fill="#00c77b" fill-rule="evenodd" stroke="none"/>
  </g>
</svg>
